# xmcd
#
# Track frame offsets:
#	150
#	15870
#	35266
#	52805
#	70034
#	88199
#	102376
#	118149
#	137268
#	155567
#	171287
#	190683
#	208222
#	225451
#	243616
#	257793
#	273566
#	292685
#
# Disc length: 4146
#
# Revision: 2
# Processed by: cddbd v1.5.2PL0 Copyright (c) Steve Scherf et al.
# Submitted via: kJams Pro 1.0b99
#
DISCID=f2103012
DTITLE=Various Artist - NSC 3037
DYEAR=2004
DGENRE=Karaoke
TTITLE0=Alan Jackson - That'd Be Alright
TTITLE1=Tim Mcgraw - She's My Kind Of Rain
TTITLE2=Kenny Chesney - Big Star
TTITLE3=Jo Dee Messina - Was That My Life
TTITLE4=Toby Keith - Rock You Baby
TTITLE5=Rascal Flatts - Love You Out Loud
TTITLE6=Phil Vassar - This Is God
TTITLE7=Travis Tritt - Country Ain't Country
TTITLE8=Jeff Bates - The Love Song
TTITLE9=Alan Jackson – Vocals - That'd Be Alright
TTITLE10=Tim Mcgraw – Vocals - She's My Kind Of Rain
TTITLE11=Kenny Chesney – Vocals - Big Star
TTITLE12=Jo Dee Messina – Vocals - Was That My Life
TTITLE13=Toby Keith – Vocals - Rock You Baby
TTITLE14=Rascal Flatts – Vocals - Love You Out Loud
TTITLE15=Phil Vassar – Vocals - This Is God
TTITLE16=Travis Tritt – Vocals - Country Ain't Country
TTITLE17=Jeff Bates – Vocals - The Love Song
EXTD=
EXTT0=
EXTT1=
EXTT2=
EXTT3=
EXTT4=
EXTT5=
EXTT6=
EXTT7=
EXTT8=
EXTT9=
EXTT10=
EXTT11=
EXTT12=
EXTT13=
EXTT14=
EXTT15=
EXTT16=
EXTT17=
PLAYORDER=
